# xmcd CD database file
#
# Track frame offsets:
#	150
#	13603
#	35981
#	47452
#	72824
#	92050
#	102171
#	123855
#	136086
#	146561
#	161629
#	175063
#
# Disc length: 2623 seconds
#
# Revision: 0
# Processed by: cddbd v1.5.2PL0 Copyright (c) Steve Scherf et al.
# Submitted via: CDex 1.51
#
DISCID=9a0a3d0c
DTITLE=Cleo Page - Leaving Mississippi
DYEAR=1900
DGENRE=Blues
TTITLE0=Leaving Mississippi
TTITLE1=Red Nigger
TTITLE2=I Got A Girl
TTITLE3=Wine
TTITLE4=Roll Your Belly Slow
TTITLE5=You Know You Wrong
TTITLE6=California Prison Farm
TTITLE7=Boot Hill
TTITLE8=California Style
TTITLE9=Guitar Lullabye
TTITLE10=Don't Tear My Clothes
TTITLE11=Goodie Train
EXTD=
EXTT0=
EXTT1=
EXTT2=
EXTT3=
EXTT4=
EXTT5=
EXTT6=
EXTT7=
EXTT8=
EXTT9=
EXTT10=
EXTT11=
PLAYORDER=
